<?xml version="1.0" encoding="UTF-8"?>
<svg width="1088px" height="608px" viewBox="0 0 1088 608" version="1.1" xmlns="http://www.w3.org/2000/svg" xmlns:xlink="http://www.w3.org/1999/xlink">
    <!-- Generator: Sketch 61.2 (89653) - https://sketch.com -->
    <title>Flattened Font, No Border</title>
    <desc>Created with Sketch.</desc>
    <g id="Flattened-Font,-No-Border" stroke="none" stroke-width="1" fill="none" fill-rule="evenodd">
        <rect id="blue-rectangle" fill="#1D2250" fill-rule="nonzero" x="0" y="0" width="1088" height="608"></rect>
        <rect id="Rectangle" fill="#FFFFFF" x="312" y="200" width="464" height="8"></rect>
        <rect id="Rectangle-Copy" fill="#FFFFFF" x="312" y="400" width="464" height="8"></rect>
        <path d="M241.759277,136 L241.759277,134.247559 L239.62793,134.247559 C237.828125,134.247559 236.399333,133.939697 235.341553,133.323975 C234.283773,132.708252 233.573324,131.989909 233.210205,131.168945 C232.847087,130.347982 232.665527,128.295573 232.665527,125.011719 L232.665527,125.011719 L232.665527,105.355957 L234.512695,105.355957 C237.891276,105.355957 240.914632,106.326904 243.582764,108.268799 C246.250895,110.210693 247.884928,114.228678 248.484863,120.322754 L248.484863,120.322754 L250.142578,120.322754 L250.142578,88.0683594 L248.484863,88.0683594 C248.105957,91.5100911 247.292887,94.2413737 246.045654,96.262207 C244.798421,98.2830404 243.274902,99.7197266 241.475098,100.572266 C239.675293,101.424805 237.354492,101.851074 234.512695,101.851074 L234.512695,101.851074 L232.665527,101.851074 L232.665527,75.4697266 L238.633301,75.4697266 C243.748535,75.4697266 247.253418,75.706543 249.147949,76.1801758 C252.589681,77.0327148 255.218343,78.5009766 257.033936,80.5849609 C258.849528,82.6689453 259.978353,85.8738607 260.42041,90.199707 L260.42041,90.199707 L262.362305,90.199707 L262.362305,71.7753906 L208.178711,71.7753906 L208.178711,73.527832 L210.310059,73.527832 C212.109863,73.527832 213.538656,73.8356934 214.596436,74.451416 C215.654215,75.0671387 216.356771,75.7854818 216.704102,76.6064453 C217.051432,77.4274089 217.225098,79.4798177 217.225098,82.7636719 L217.225098,82.7636719 L217.225098,125.011719 C217.225098,128.232422 217.051432,130.22168 216.704102,130.979492 C216.262044,132.05306 215.630534,132.810872 214.80957,133.25293 C213.672852,133.916016 212.173014,134.247559 210.310059,134.247559 L210.310059,134.247559 L208.178711,134.247559 L208.178711,136 L241.759277,136 Z M316.773926,136 L316.773926,134.247559 L314.642578,134.247559 C312.842773,134.247559 311.413981,133.939697 310.356201,133.323975 C309.298421,132.708252 308.587972,131.989909 308.224854,131.168945 C307.861735,130.347982 307.680176,128.295573 307.680176,125.011719 L307.680946,82.3975173 C307.693792,79.3917706 307.8672,77.5245643 308.201172,76.7958984 C308.674805,75.7223307 309.322103,74.9645182 310.143066,74.5224609 C311.279785,73.859375 312.779622,73.527832 314.642578,73.527832 L314.642578,73.527832 L316.773926,73.527832 L316.773926,71.7753906 L283.193359,71.7753906 L283.193359,73.527832 L285.324707,73.527832 C287.124512,73.527832 288.553304,73.8356934 289.611084,74.451416 C290.668864,75.0671387 291.371419,75.7854818 291.71875,76.6064453 C292.066081,77.4274089 292.239746,79.4798177 292.239746,82.7636719 L292.239746,82.7636719 L292.239746,125.011719 C292.239746,128.232422 292.066081,130.22168 291.71875,130.979492 C291.276693,132.05306 290.645182,132.810872 289.824219,133.25293 C288.6875,133.916016 287.187663,134.247559 285.324707,134.247559 L285.324707,134.247559 L283.193359,134.247559 L283.193359,136 L316.773926,136 Z M394.346191,137.468262 L394.346191,83.9951172 C394.346191,80.9638672 394.606689,78.8246257 395.127686,77.5773926 C395.648682,76.3301595 396.374919,75.4302572 397.306396,74.8776855 C398.237874,74.3251139 400.061361,73.8751628 402.776855,73.527832 L402.776855,73.527832 L402.776855,71.7753906 L381.558105,71.7753906 L381.558105,73.527832 C385.126139,73.464681 387.667969,74.3487956 389.183594,76.1801758 C390.288737,77.5379232 390.841309,80.1429036 390.841309,83.9951172 L390.841309,83.9951172 L390.841309,111.60791 L359.155273,71.7753906 L336.373535,71.7753906 L336.373535,73.527832 C338.331217,73.5909831 339.831055,73.8909505 340.873047,74.4277344 C341.915039,74.9645182 343.114909,76.0854492 344.472656,77.7905273 L344.472656,77.7905273 L345.846191,79.4956055 L345.846191,124.822266 C345.846191,128.232422 345.15153,130.647949 343.762207,132.068848 C342.372884,133.489746 339.909993,134.215983 336.373535,134.247559 L336.373535,134.247559 L336.373535,136 L359.155273,136 L359.155273,134.247559 L357.639648,134.247559 C355.460938,134.247559 353.526937,133.60026 351.837646,132.305664 C350.148356,131.011068 349.303711,128.516602 349.303711,124.822266 L349.303711,124.822266 L349.303711,83.9951172 L392.73584,137.468262 L394.346191,137.468262 Z M443.168945,136 L443.168945,134.247559 C439.82194,133.994954 437.722168,133.616048 436.869629,133.11084 C435.417155,132.258301 434.690918,130.932129 434.690918,129.132324 C434.690918,127.774577 435.132975,126.053711 436.01709,123.969727 L436.01709,123.969727 L438.716797,117.717773 L461.403809,117.717773 L464.813965,125.722168 C465.698079,127.806152 466.171712,128.990234 466.234863,129.274414 C466.424316,129.874349 466.519043,130.458496 466.519043,131.026855 C466.519043,131.974121 466.171712,132.700358 465.477051,133.205566 C464.466634,133.900228 462.714193,134.247559 460.219727,134.247559 L460.219727,134.247559 L458.940918,134.247559 L458.940918,136 L490.01123,136 L490.01123,134.247559 C488.053548,134.089681 486.537923,133.521322 485.464355,132.54248 C484.043457,131.247884 482.227865,128.10612 480.017578,123.117188 L480.017578,123.117188 L456.856934,70.4492188 L455.957031,70.4492188 L432.98584,121.696289 C430.807129,126.590495 428.975749,129.819092 427.491699,131.38208 C426.00765,132.945068 424.113118,133.900228 421.808105,134.247559 L421.808105,134.247559 L421.808105,136 L443.168945,136 Z M459.793457,114.212891 L440.374512,114.212891 L450.226074,92.0942383 L459.793457,114.212891 Z M566.446777,137.468262 L566.446777,83.9951172 C566.446777,80.9638672 566.707275,78.8246257 567.228271,77.5773926 C567.749268,76.3301595 568.475505,75.4302572 569.406982,74.8776855 C570.33846,74.3251139 572.161947,73.8751628 574.877441,73.527832 L574.877441,73.527832 L574.877441,71.7753906 L553.658691,71.7753906 L553.658691,73.527832 C557.226725,73.464681 559.768555,74.3487956 561.28418,76.1801758 C562.389323,77.5379232 562.941895,80.1429036 562.941895,83.9951172 L562.941895,83.9951172 L562.941895,111.60791 L531.255859,71.7753906 L508.474121,71.7753906 L508.474121,73.527832 C510.431803,73.5909831 511.931641,73.8909505 512.973633,74.4277344 C514.015625,74.9645182 515.215495,76.0854492 516.573242,77.7905273 L516.573242,77.7905273 L517.946777,79.4956055 L517.946777,124.822266 C517.946777,128.232422 517.252116,130.647949 515.862793,132.068848 C514.47347,133.489746 512.010579,134.215983 508.474121,134.247559 L508.474121,134.247559 L508.474121,136 L531.255859,136 L531.255859,134.247559 L529.740234,134.247559 C527.561523,134.247559 525.627523,133.60026 523.938232,132.305664 C522.248942,131.011068 521.404297,128.516602 521.404297,124.822266 L521.404297,124.822266 L521.404297,83.9951172 L564.836426,137.468262 L566.446777,137.468262 Z M631.894043,137.468262 C637.104004,137.468262 641.658773,136.623617 645.55835,134.934326 C649.457926,133.245036 653.20752,130.521647 656.807129,126.76416 L656.807129,126.76416 L656.807129,121.222656 C653.081217,125.548503 649.536865,128.59554 646.174072,130.36377 C642.811279,132.131999 639.109049,133.016113 635.067383,133.016113 C630.141602,133.016113 626.13151,131.80835 623.037109,129.392822 C619.942708,126.977295 617.669271,123.409261 616.216797,118.688721 C614.764323,113.96818 614.038086,108.734538 614.038086,102.987793 C614.038086,97.1463216 615.032715,91.8416341 617.021973,87.0737305 C618.569173,83.347819 621.016276,80.3323568 624.363281,78.0273438 C627.710286,75.7223307 631.388835,74.5698242 635.398926,74.5698242 C640.198405,74.5698242 644.492676,76.1170247 648.281738,79.2114258 C652.070801,82.3058268 654.659993,86.7579753 656.049316,92.5678711 L656.049316,92.5678711 L657.896484,92.5678711 L657.896484,70.3071289 L656.049316,70.3071289 C655.828288,71.9174805 655.346761,73.0936686 654.604736,73.8356934 C653.862712,74.5777181 652.986491,74.9487305 651.976074,74.9487305 C651.186686,74.9487305 649.339518,74.3803711 646.43457,73.2436523 C641.414062,71.2859701 636.646159,70.3071289 632.130859,70.3071289 C626.005208,70.3071289 620.218994,71.8227539 614.772217,74.8540039 C609.325439,77.8852539 604.999593,82.1479492 601.794678,87.6420898 C598.589762,93.1362305 596.987305,98.9461263 596.987305,105.071777 C596.987305,110.881673 598.431885,116.360026 601.321045,121.506836 C604.210205,126.653646 608.315023,130.600586 613.635498,133.347656 C618.955973,136.094727 625.042155,137.468262 631.894043,137.468262 Z M714.723633,136 L714.723633,134.247559 L712.592285,134.247559 C710.79248,134.247559 709.363688,133.939697 708.305908,133.323975 C707.248128,132.708252 706.537679,131.989909 706.174561,131.168945 C705.811442,130.347982 705.629883,128.295573 705.629883,125.011719 L705.629883,125.011719 L705.629883,82.7636719 C705.629883,79.5429688 705.803548,77.5537109 706.150879,76.7958984 C706.624512,75.7223307 707.27181,74.9645182 708.092773,74.5224609 C709.229492,73.859375 710.729329,73.527832 712.592285,73.527832 L712.592285,73.527832 L714.723633,73.527832 L714.723633,71.7753906 L681.143066,71.7753906 L681.143066,73.527832 L683.274414,73.527832 C685.074219,73.527832 686.503011,73.8356934 687.560791,74.451416 C688.618571,75.0671387 689.321126,75.7854818 689.668457,76.6064453 C690.015788,77.4274089 690.189453,79.4798177 690.189453,82.7636719 L690.189453,82.7636719 L690.189453,125.011719 C690.189453,128.232422 690.015788,130.22168 689.668457,130.979492 C689.2264,132.05306 688.594889,132.810872 687.773926,133.25293 C686.637207,133.916016 685.13737,134.247559 683.274414,134.247559 L683.274414,134.247559 L681.143066,134.247559 L681.143066,136 L714.723633,136 Z M755.068359,136 L755.068359,134.247559 C751.721354,133.994954 749.621582,133.616048 748.769043,133.11084 C747.316569,132.258301 746.590332,130.932129 746.590332,129.132324 C746.590332,127.774577 747.032389,126.053711 747.916504,123.969727 L747.916504,123.969727 L750.616211,117.717773 L773.303223,117.717773 L776.713379,125.722168 C777.597493,127.806152 778.071126,128.990234 778.134277,129.274414 C778.32373,129.874349 778.418457,130.458496 778.418457,131.026855 C778.418457,131.974121 778.071126,132.700358 777.376465,133.205566 C776.366048,133.900228 774.613607,134.247559 772.119141,134.247559 L772.119141,134.247559 L770.840332,134.247559 L770.840332,136 L801.910645,136 L801.910645,134.247559 C799.952962,134.089681 798.437337,133.521322 797.36377,132.54248 C795.942871,131.247884 794.127279,128.10612 791.916992,123.117188 L791.916992,123.117188 L768.756348,70.4492188 L767.856445,70.4492188 L744.885254,121.696289 C742.706543,126.590495 740.875163,129.819092 739.391113,131.38208 C737.907064,132.945068 736.012533,133.900228 733.70752,134.247559 L733.70752,134.247559 L733.70752,136 L755.068359,136 Z M771.692871,114.212891 L752.273926,114.212891 L762.125488,92.0942383 L771.692871,114.212891 Z M877.825195,136 L880.240723,113.455078 L878.298828,113.455078 C876.814779,118.507161 875.243896,122.327799 873.586182,124.916992 C871.928467,127.506185 869.962891,129.400716 867.689453,130.600586 C865.416016,131.800456 862.574219,132.400391 859.164062,132.400391 L859.164062,132.400391 L853.812012,132.400391 C850.780762,132.400391 848.870443,132.258301 848.081055,131.974121 C846.975911,131.532064 846.233887,130.861084 845.85498,129.961182 C845.476074,129.061279 845.286621,126.969401 845.286621,123.685547 L845.286621,123.685547 L845.286621,82.7636719 C845.286621,79.5429688 845.460286,77.5537109 845.807617,76.7958984 C846.28125,75.7223307 846.928548,74.9645182 847.749512,74.5224609 C848.88623,73.859375 850.386068,73.527832 852.249023,73.527832 L852.249023,73.527832 L855.043457,73.527832 L855.043457,71.7753906 L820.799805,71.7753906 L820.799805,73.527832 L822.931152,73.527832 C824.730957,73.527832 826.159749,73.8356934 827.217529,74.451416 C828.275309,75.0671387 828.977865,75.7854818 829.325195,76.6064453 C829.672526,77.4274089 829.846191,79.4798177 829.846191,82.7636719 L829.846191,82.7636719 L829.846191,125.011719 C829.846191,128.232422 829.672526,130.22168 829.325195,130.979492 C828.883138,132.05306 828.251628,132.810872 827.430664,133.25293 C826.293945,133.916016 824.794108,134.247559 822.931152,134.247559 L822.931152,134.247559 L820.799805,134.247559 L820.799805,136 L877.825195,136 Z" id="FINANCIAL" fill="#FFFFFF" fill-rule="nonzero"></path>
        <path d="M167.115723,336 L167.115723,334.247559 L164.984375,334.247559 C163.152995,334.247559 161.708415,333.939697 160.650635,333.323975 C159.592855,332.708252 158.882406,331.989909 158.519287,331.168945 C158.156169,330.347982 157.974609,328.295573 157.974609,325.011719 L157.974609,325.011719 L157.974609,275.469727 L162.758301,275.469727 C165.757975,275.469727 167.857747,275.753906 169.057617,276.322266 C171.204753,277.364258 172.894043,278.761475 174.125488,280.513916 C175.356934,282.266357 176.477865,285.147624 177.488281,289.157715 L177.488281,289.157715 L179.193359,289.157715 L179.193359,271.775391 L121.504883,271.775391 L121.504883,289.157715 L123.304688,289.157715 C124.030924,284.421387 125.767578,280.774414 128.514648,278.216797 C130.472331,276.385417 133.614095,275.469727 137.939941,275.469727 L137.939941,275.469727 L142.581543,275.469727 L142.581543,325.011719 C142.581543,328.232422 142.407878,330.22168 142.060547,330.979492 C141.586914,332.05306 140.939616,332.810872 140.118652,333.25293 C138.981934,333.916016 137.482096,334.247559 135.619141,334.247559 L135.619141,334.247559 L133.487793,334.247559 L133.487793,336 L167.115723,336 Z M256.149902,336 L259.039062,315.586426 L257.286621,315.586426 C255.707845,321.27002 253.110758,325.501139 249.495361,328.279785 C245.879964,331.058431 241.072591,332.447754 235.073242,332.447754 L235.073242,332.447754 L231.236816,332.447754 C229.405436,332.447754 228.079264,332.19515 227.258301,331.689941 C226.437337,331.184733 225.876872,330.537435 225.576904,329.748047 C225.276937,328.958659 225.126953,326.795736 225.126953,323.259277 L225.126953,323.259277 L225.126953,305.166504 C228.189779,305.166504 230.526367,305.569092 232.136719,306.374268 C233.74707,307.179443 235.160075,308.750326 236.375732,311.086914 C237.59139,313.423503 238.388672,316.423177 238.767578,320.085938 L238.767578,320.085938 L240.567383,320.085938 L240.567383,286.458008 L238.767578,286.458008 C238.26237,291.44694 237.094076,295.220215 235.262695,297.777832 C233.431315,300.335449 230.479004,301.614258 226.405762,301.614258 L226.405762,301.614258 L225.126953,301.614258 L225.126953,275.469727 L231.757812,275.469727 C236.620443,275.469727 239.935872,275.753906 241.704102,276.322266 C244.735352,277.269531 247.079834,278.753581 248.737549,280.774414 C250.395264,282.795247 251.681966,286.126465 252.597656,290.768066 L252.597656,290.768066 L254.397461,290.768066 L254.397461,271.775391 L200.640137,271.775391 L200.640137,273.527832 L202.771484,273.527832 C204.855469,273.527832 206.497396,273.969889 207.697266,274.854004 C208.549805,275.453939 209.133952,276.306478 209.449707,277.411621 C209.607585,278.074707 209.686523,279.858724 209.686523,282.763672 L209.686523,325.011719 C209.686523,328.232422 209.512858,330.22168 209.165527,330.979492 C208.72347,332.05306 208.09196,332.810872 207.270996,333.25293 C206.134277,333.916016 204.63444,334.247559 202.771484,334.247559 L202.771484,334.247559 L200.640137,334.247559 L200.640137,336 L256.149902,336 Z M318.139648,337.468262 C323.349609,337.468262 327.904378,336.623617 331.803955,334.934326 C335.703532,333.245036 339.453125,330.521647 343.052734,326.76416 L343.052734,326.76416 L343.052734,321.222656 C339.326823,325.548503 335.782471,328.59554 332.419678,330.36377 C329.056885,332.131999 325.354655,333.016113 321.312988,333.016113 C316.387207,333.016113 312.377116,331.80835 309.282715,329.392822 C306.188314,326.977295 303.914876,323.409261 302.462402,318.688721 C301.009928,313.96818 300.283691,308.734538 300.283691,302.987793 C300.283691,297.146322 301.27832,291.841634 303.267578,287.07373 C304.814779,283.347819 307.261882,280.332357 310.608887,278.027344 C313.955892,275.722331 317.63444,274.569824 321.644531,274.569824 C326.44401,274.569824 330.738281,276.117025 334.527344,279.211426 C338.316406,282.305827 340.905599,286.757975 342.294922,292.567871 L342.294922,292.567871 L344.14209,292.567871 L344.14209,270.307129 L342.294922,270.307129 C342.073893,271.91748 341.592367,273.093669 340.850342,273.835693 C340.108317,274.577718 339.232096,274.94873 338.22168,274.94873 C337.432292,274.94873 335.585124,274.380371 332.680176,273.243652 C327.659668,271.28597 322.891764,270.307129 318.376465,270.307129 C312.250814,270.307129 306.4646,271.822754 301.017822,274.854004 C295.571045,277.885254 291.245199,282.147949 288.040283,287.64209 C284.835368,293.13623 283.23291,298.946126 283.23291,305.071777 C283.23291,310.881673 284.67749,316.360026 287.56665,321.506836 C290.455811,326.653646 294.560628,330.600586 299.881104,333.347656 C305.201579,336.094727 311.28776,337.468262 318.139648,337.468262 Z M401.063965,336 L401.063965,334.247559 L398.932617,334.247559 C397.132812,334.247559 395.70402,333.939697 394.64624,333.323975 C393.58846,332.708252 392.878011,331.989909 392.514893,331.168945 C392.151774,330.347982 391.970215,328.295573 391.970215,325.011719 L391.970215,325.011719 L391.970215,305.119141 L414.657227,305.119141 L414.657227,325.011719 C414.657227,328.232422 414.483561,330.22168 414.13623,330.979492 C413.662598,332.05306 413.015299,332.810872 412.194336,333.25293 C411.089193,333.916016 409.589355,334.247559 407.694824,334.247559 L407.694824,334.247559 L405.61084,334.247559 L405.61084,336 L439.144043,336 L439.144043,334.247559 L437.060059,334.247559 C435.260254,334.247559 433.823568,333.939697 432.75,333.323975 C431.676432,332.708252 430.965983,331.989909 430.618652,331.168945 C430.271322,330.347982 430.097656,328.295573 430.097656,325.011719 L430.097656,325.011719 L430.097656,282.763672 C430.097656,279.542969 430.271322,277.553711 430.618652,276.795898 C431.092285,275.722331 431.739583,274.964518 432.560547,274.522461 C433.66569,273.859375 435.165527,273.527832 437.060059,273.527832 L437.060059,273.527832 L439.144043,273.527832 L439.144043,271.775391 L405.61084,271.775391 L405.61084,273.527832 L407.694824,273.527832 C409.494629,273.527832 410.931315,273.835693 412.004883,274.451416 C413.078451,275.067139 413.7889,275.785482 414.13623,276.606445 C414.483561,277.427409 414.657227,279.479818 414.657227,282.763672 L414.657227,282.763672 L414.657227,300.951172 L391.970215,300.951172 L391.970986,282.397517 C391.983831,279.391771 392.157239,277.524564 392.491211,276.795898 C392.964844,275.722331 393.612142,274.964518 394.433105,274.522461 C395.569824,273.859375 397.069661,273.527832 398.932617,273.527832 L398.932617,273.527832 L401.063965,273.527832 L401.063965,271.775391 L367.483398,271.775391 L367.483398,273.527832 L369.614746,273.527832 C371.414551,273.527832 372.843343,273.835693 373.901123,274.451416 C374.958903,275.067139 375.661458,275.785482 376.008789,276.606445 C376.35612,277.427409 376.529785,279.479818 376.529785,282.763672 L376.529014,325.377873 C376.516169,328.38362 376.342761,330.250826 376.008789,330.979492 C375.566732,332.05306 374.935221,332.810872 374.114258,333.25293 C372.977539,333.916016 371.477702,334.247559 369.614746,334.247559 L369.614746,334.247559 L367.483398,334.247559 L367.483398,336 L401.063965,336 Z M516.242676,337.468262 L516.242676,283.995117 C516.242676,280.963867 516.503174,278.824626 517.02417,277.577393 C517.545166,276.33016 518.271403,275.430257 519.202881,274.877686 C520.134359,274.325114 521.957845,273.875163 524.67334,273.527832 L524.67334,273.527832 L524.67334,271.775391 L503.45459,271.775391 L503.45459,273.527832 C507.022624,273.464681 509.564453,274.348796 511.080078,276.180176 C512.185221,277.537923 512.737793,280.142904 512.737793,283.995117 L512.737793,283.995117 L512.737793,311.60791 L481.051758,271.775391 L458.27002,271.775391 L458.27002,273.527832 C460.227702,273.590983 461.727539,273.890951 462.769531,274.427734 C463.811523,274.964518 465.011393,276.085449 466.369141,277.790527 L466.369141,277.790527 L467.742676,279.495605 L467.742676,324.822266 C467.742676,328.232422 467.048014,330.647949 465.658691,332.068848 C464.269368,333.489746 461.806478,334.215983 458.27002,334.247559 L458.27002,334.247559 L458.27002,336 L481.051758,336 L481.051758,334.247559 L479.536133,334.247559 C477.357422,334.247559 475.423421,333.60026 473.734131,332.305664 C472.04484,331.011068 471.200195,328.516602 471.200195,324.822266 L471.200195,324.822266 L471.200195,283.995117 L514.632324,337.468262 L516.242676,337.468262 Z M581.026855,337.468262 C592.551921,337.468262 601.472005,333.363444 607.787109,325.153809 C612.555013,318.965007 614.938965,311.797363 614.938965,303.650879 C614.938965,294.115072 611.741943,286.173828 605.3479,279.827148 C598.953857,273.480469 590.641602,270.496582 580.411133,270.875488 C570.938477,270.496582 562.957764,273.488363 556.468994,279.85083 C549.980225,286.213298 546.73584,294.162435 546.73584,303.698242 C546.73584,312.192057 549.230306,319.533366 554.219238,325.722168 C560.534342,333.552897 569.470215,337.468262 581.026855,337.468262 Z M580.884766,333.916016 C576.053711,333.916016 572.296224,332.084635 569.612305,328.421875 C565.760091,323.180339 563.833984,315.081217 563.833984,304.124512 C563.833984,294.90446 565.081217,287.831543 567.575684,282.905762 C570.638509,276.906413 575.106445,273.906738 580.979492,273.906738 C584.16862,273.906738 586.986735,274.775065 589.433838,276.511719 C591.880941,278.248372 593.89388,281.224365 595.472656,285.439697 C597.051432,289.655029 597.84082,296.009603 597.84082,304.503418 C597.84082,311.639486 597.06722,317.4257 595.52002,321.862061 C593.972819,326.298421 591.809896,329.527018 589.03125,331.547852 C586.852539,333.126628 584.137044,333.916016 580.884766,333.916016 Z M693.22168,336 L695.637207,313.455078 L693.695312,313.455078 C692.211263,318.507161 690.640381,322.327799 688.982666,324.916992 C687.324951,327.506185 685.359375,329.400716 683.085938,330.600586 C680.8125,331.800456 677.970703,332.400391 674.560547,332.400391 L674.560547,332.400391 L669.208496,332.400391 C666.177246,332.400391 664.266927,332.258301 663.477539,331.974121 C662.372396,331.532064 661.630371,330.861084 661.251465,329.961182 C660.872559,329.061279 660.683105,326.969401 660.683105,323.685547 L660.683105,323.685547 L660.683876,282.397517 C660.696721,279.391771 660.87013,277.524564 661.204102,276.795898 C661.677734,275.722331 662.325033,274.964518 663.145996,274.522461 C664.282715,273.859375 665.782552,273.527832 667.645508,273.527832 L667.645508,273.527832 L670.439941,273.527832 L670.439941,271.775391 L636.196289,271.775391 L636.196289,273.527832 L638.327637,273.527832 C640.127441,273.527832 641.556234,273.835693 642.614014,274.451416 C643.671794,275.067139 644.374349,275.785482 644.72168,276.606445 C645.06901,277.427409 645.242676,279.479818 645.242676,282.763672 L645.242676,282.763672 L645.242676,325.011719 C645.242676,328.232422 645.06901,330.22168 644.72168,330.979492 C644.279622,332.05306 643.648112,332.810872 642.827148,333.25293 C641.69043,333.916016 640.190592,334.247559 638.327637,334.247559 L638.327637,334.247559 L636.196289,334.247559 L636.196289,336 L693.22168,336 Z M753.174805,337.468262 C764.69987,337.468262 773.619954,333.363444 779.935059,325.153809 C784.702962,318.965007 787.086914,311.797363 787.086914,303.650879 C787.086914,294.115072 783.889893,286.173828 777.49585,279.827148 C771.101807,273.480469 762.789551,270.496582 752.559082,270.875488 C743.086426,270.496582 735.105713,273.488363 728.616943,279.85083 C722.128174,286.213298 718.883789,294.162435 718.883789,303.698242 C718.883789,312.192057 721.378255,319.533366 726.367188,325.722168 C732.682292,333.552897 741.618164,337.468262 753.174805,337.468262 Z M753.032715,333.916016 C748.20166,333.916016 744.444173,332.084635 741.760254,328.421875 C737.90804,323.180339 735.981934,315.081217 735.981934,304.124512 C735.981934,294.90446 737.229167,287.831543 739.723633,282.905762 C742.786458,276.906413 747.254395,273.906738 753.127441,273.906738 C756.316569,273.906738 759.134684,274.775065 761.581787,276.511719 C764.02889,278.248372 766.041829,281.224365 767.620605,285.439697 C769.199382,289.655029 769.98877,296.009603 769.98877,304.503418 C769.98877,311.639486 769.215169,317.4257 767.667969,321.862061 C766.120768,326.298421 763.957845,329.527018 761.179199,331.547852 C759.000488,333.126628 756.284993,333.916016 753.032715,333.916016 Z M846.850586,337.515625 C851.61849,337.515625 856.220622,337.049886 860.656982,336.118408 C865.093343,335.18693 869.363932,333.805501 873.46875,331.974121 L873.46875,331.974121 L873.46875,318.617676 C873.46875,316.281087 873.61084,314.812826 873.89502,314.212891 C874.400228,313.076172 875.118571,312.263102 876.050049,311.773682 C876.981527,311.284261 878.631348,310.960612 880.999512,310.802734 L880.999512,310.802734 L880.999512,309.050293 L849.787109,309.050293 L849.787109,310.802734 L851.444824,310.802734 C852.992025,310.802734 854.310303,311.102702 855.399658,311.702637 C856.489014,312.302572 857.207357,312.973551 857.554688,313.715576 C857.902018,314.457601 858.075684,316.091634 858.075684,318.617676 L858.075684,318.617676 L858.075684,331.974121 C856.370605,332.605632 854.704997,333.087158 853.078857,333.418701 C851.452718,333.750244 849.866048,333.916016 848.318848,333.916016 C843.866699,333.916016 840.02238,332.82666 836.785889,330.647949 C833.549398,328.469238 831.204915,325.059082 829.752441,320.41748 C828.299967,315.775879 827.57373,310.376465 827.57373,304.219238 C827.57373,299.135579 828.236816,294.178223 829.562988,289.347168 C830.88916,284.516113 833.14681,280.750732 836.335938,278.051025 C839.525065,275.351318 843.519368,274.001465 848.318848,274.001465 C853.339355,274.001465 857.965169,275.611816 862.196289,278.83252 C866.427409,282.053223 869.600749,286.757975 871.716309,292.946777 L871.716309,292.946777 L873.46875,292.946777 L873.46875,270.307129 L871.716309,270.307129 C871.084798,272.106934 870.390137,273.330485 869.632324,273.977783 C868.874512,274.625081 868.053548,274.94873 867.169434,274.94873 C866.601074,274.94873 864.7618,274.356689 861.651611,273.172607 C858.541423,271.988525 856.291667,271.270182 854.902344,271.017578 C852.344727,270.51237 849.471354,270.259766 846.282227,270.259766 C835.988607,270.259766 827.447428,273.590983 820.658691,280.253418 C813.869954,286.915853 810.475586,295.078125 810.475586,304.740234 C810.475586,310.139648 811.580729,315.018066 813.791016,319.375488 C815.527669,322.754069 817.935303,325.793213 821.013916,328.49292 C824.092529,331.192627 827.644775,333.371338 831.670654,335.029053 C835.696533,336.686768 840.75651,337.515625 846.850586,337.515625 Z M950.946289,336 L950.946289,334.247559 L947.34668,334.247559 C945.641602,334.247559 944.27596,333.939697 943.249756,333.323975 C942.223551,332.708252 941.536784,331.997803 941.189453,331.192627 C940.842122,330.387451 940.668457,328.327148 940.668457,325.011719 L940.668457,325.011719 L940.668457,309.476562 L954.593262,286.221191 C958.003418,280.316569 960.497884,276.701172 962.07666,275.375 C963.213379,274.427734 964.839518,273.812012 966.955078,273.527832 L966.955078,273.527832 L966.955078,271.775391 L947.34668,271.775391 L947.34668,273.527832 C950.220052,273.68571 952.193522,274.159342 953.26709,274.94873 C954.088053,275.51709 954.498535,276.227539 954.498535,277.080078 C954.498535,278.627279 953.061849,281.769043 950.188477,286.505371 L950.188477,286.505371 L938.631836,305.876953 L927.027832,284.61084 C924.50179,280.032389 923.23877,277.174805 923.23877,276.038086 C923.23877,275.438151 923.609782,274.869792 924.351807,274.333008 C925.093831,273.796224 926.396322,273.527832 928.259277,273.527832 L928.259277,273.527832 L929.632812,273.527832 L929.632812,271.775391 L898.84668,271.775391 L898.84668,273.527832 C900.899089,273.559408 902.541016,274.056722 903.772461,275.019775 C905.003906,275.982829 907.119466,279.17985 910.119141,284.61084 L910.119141,284.61084 L925.228027,312.128906 L925.228027,325.011719 C925.228027,328.232422 925.054362,330.22168 924.707031,330.979492 C924.233398,332.05306 923.5861,332.810872 922.765137,333.25293 C921.659993,333.916016 920.160156,334.247559 918.265625,334.247559 L918.265625,334.247559 L914.902832,334.247559 L914.902832,336 L950.946289,336 Z" id="TECHNOLOGY" fill="#FFFFFF" fill-rule="nonzero"></path>
        <path d="M269.096191,536 L269.096191,534.247559 C266.191243,534.247559 264.194092,533.979167 263.104736,533.442383 C262.015381,532.905599 261.257568,532.187256 260.831299,531.287354 C260.405029,530.387451 260.191895,528.200846 260.191895,524.727539 L260.191895,524.727539 L260.191895,506.918945 C267.48584,506.918945 272.664225,506.540039 275.727051,505.782227 C280.273926,504.708659 283.84196,502.687826 286.431152,499.719727 C289.020345,496.751628 290.314941,493.183594 290.314941,489.015625 C290.314941,484.089844 288.309896,479.985026 284.299805,476.701172 C280.289714,473.417318 273.674642,471.775391 264.45459,471.775391 L264.45459,471.775391 L236.462891,471.775391 L236.462891,473.527832 C239.399414,473.527832 241.40446,473.796224 242.478027,474.333008 C243.551595,474.869792 244.301514,475.588135 244.727783,476.488037 C245.154053,477.387939 245.367188,479.574544 245.367188,483.047852 L245.367188,483.047852 L245.367188,524.727539 C245.367188,528.200846 245.154053,530.379557 244.727783,531.263672 C244.301514,532.147786 243.559489,532.86613 242.501709,533.418701 C241.443929,533.971273 239.43099,534.247559 236.462891,534.247559 L236.462891,534.247559 L236.462891,536 L269.096191,536 Z M262.560059,503.319336 C262.023275,503.319336 261.233887,503.28776 260.191895,503.224609 L260.191895,503.224609 L260.191895,475.469727 L262.133789,475.469727 C266.270182,475.469727 269.380371,476.57487 271.464355,478.785156 C273.54834,480.995443 274.590332,484.484538 274.590332,489.252441 C274.590332,494.051921 273.54834,497.596273 271.464355,499.885498 C269.380371,502.174723 266.412272,503.319336 262.560059,503.319336 Z M324.170898,536 L324.170898,534.247559 C320.823893,533.994954 318.724121,533.616048 317.871582,533.11084 C316.419108,532.258301 315.692871,530.932129 315.692871,529.132324 C315.692871,527.774577 316.134928,526.053711 317.019043,523.969727 L317.019043,523.969727 L319.71875,517.717773 L342.405762,517.717773 L345.815918,525.722168 C346.700033,527.806152 347.173665,528.990234 347.236816,529.274414 C347.42627,529.874349 347.520996,530.458496 347.520996,531.026855 C347.520996,531.974121 347.173665,532.700358 346.479004,533.205566 C345.468587,533.900228 343.716146,534.247559 341.22168,534.247559 L341.22168,534.247559 L339.942871,534.247559 L339.942871,536 L371.013184,536 L371.013184,534.247559 C369.055501,534.089681 367.539876,533.521322 366.466309,532.54248 C365.04541,531.247884 363.229818,528.10612 361.019531,523.117188 L361.019531,523.117188 L337.858887,470.449219 L336.958984,470.449219 L313.987793,521.696289 C311.809082,526.590495 309.977702,529.819092 308.493652,531.38208 C307.009603,532.945068 305.115072,533.900228 302.810059,534.247559 L302.810059,534.247559 L302.810059,536 L324.170898,536 Z M340.79541,514.212891 L321.376465,514.212891 L331.228027,492.094238 L340.79541,514.212891 Z M422.772461,536 L422.772461,534.247559 C419.835938,534.247559 417.830892,533.979167 416.757324,533.442383 C415.683757,532.905599 414.933838,532.187256 414.507568,531.287354 C414.081299,530.387451 413.868164,528.200846 413.868164,524.727539 L413.868164,524.727539 L413.868164,506.729492 L418.083496,506.729492 L438.78125,536 L459.005371,536 L459.005371,534.247559 C457.300293,534.152832 455.800456,533.616048 454.505859,532.637207 C453.65332,531.942546 452.216634,530.190104 450.195801,527.379883 L450.195801,527.379883 L434.755371,505.640137 C438.670736,504.661296 441.717773,503.193034 443.896484,501.235352 C447.306641,498.140951 449.011719,494.225586 449.011719,489.489258 C449.011719,485.605469 447.875,482.218994 445.601562,479.329834 C443.328125,476.440674 440.391602,474.45931 436.791992,473.385742 C433.192383,472.312174 427.508789,471.775391 419.741211,471.775391 L419.741211,471.775391 L389.902344,471.775391 L389.902344,473.527832 C392.838867,473.527832 394.843913,473.796224 395.91748,474.333008 C396.991048,474.869792 397.740967,475.588135 398.167236,476.488037 C398.593506,477.387939 398.806641,479.574544 398.806641,483.047852 L398.806641,483.047852 L398.806641,524.727539 C398.806641,528.200846 398.593506,530.379557 398.167236,531.263672 C397.740967,532.147786 396.998942,532.86613 395.941162,533.418701 C394.883382,533.971273 392.870443,534.247559 389.902344,534.247559 L389.902344,534.247559 L389.902344,536 L422.772461,536 Z M416.567871,503.366699 L413.868164,503.366699 L413.868164,475.23291 L418.936035,475.23291 C424.019694,475.23291 427.706136,476.401204 429.995361,478.737793 C432.284587,481.074382 433.429199,484.689779 433.429199,489.583984 C433.429199,492.962565 432.805583,495.701742 431.55835,497.801514 C430.311117,499.901286 428.598145,501.35376 426.419434,502.158936 C424.240723,502.964111 420.956868,503.366699 416.567871,503.366699 L416.567871,503.366699 Z M519.858398,536 L519.858398,534.247559 L517.727051,534.247559 C515.895671,534.247559 514.45109,533.939697 513.393311,533.323975 C512.335531,532.708252 511.625081,531.989909 511.261963,531.168945 C510.898844,530.347982 510.717285,528.295573 510.717285,525.011719 L510.717285,525.011719 L510.717285,475.469727 L515.500977,475.469727 C518.500651,475.469727 520.600423,475.753906 521.800293,476.322266 C523.947428,477.364258 525.636719,478.761475 526.868164,480.513916 C528.099609,482.266357 529.22054,485.147624 530.230957,489.157715 L530.230957,489.157715 L531.936035,489.157715 L531.936035,471.775391 L474.247559,471.775391 L474.247559,489.157715 L476.047363,489.157715 C476.7736,484.421387 478.510254,480.774414 481.257324,478.216797 C483.215007,476.385417 486.356771,475.469727 490.682617,475.469727 L490.682617,475.469727 L495.324219,475.469727 L495.324219,525.011719 C495.324219,528.232422 495.150553,530.22168 494.803223,530.979492 C494.32959,532.05306 493.682292,532.810872 492.861328,533.25293 C491.724609,533.916016 490.224772,534.247559 488.361816,534.247559 L488.361816,534.247559 L486.230469,534.247559 L486.230469,536 L519.858398,536 Z M610.787109,537.468262 L610.787109,483.995117 C610.787109,480.963867 611.047607,478.824626 611.568604,477.577393 C612.0896,476.33016 612.815837,475.430257 613.747314,474.877686 C614.678792,474.325114 616.502279,473.875163 619.217773,473.527832 L619.217773,473.527832 L619.217773,471.775391 L597.999023,471.775391 L597.999023,473.527832 C601.567057,473.464681 604.108887,474.348796 605.624512,476.180176 C606.729655,477.537923 607.282227,480.142904 607.282227,483.995117 L607.282227,483.995117 L607.282227,511.60791 L575.596191,471.775391 L552.814453,471.775391 L552.814453,473.527832 C554.772135,473.590983 556.271973,473.890951 557.313965,474.427734 C558.355957,474.964518 559.555827,476.085449 560.913574,477.790527 L560.913574,477.790527 L562.287109,479.495605 L562.287109,524.822266 C562.287109,528.232422 561.592448,530.647949 560.203125,532.068848 C558.813802,533.489746 556.350911,534.215983 552.814453,534.247559 L552.814453,534.247559 L552.814453,536 L575.596191,536 L575.596191,534.247559 L574.080566,534.247559 C571.901855,534.247559 569.967855,533.60026 568.278564,532.305664 C566.589274,531.011068 565.744629,528.516602 565.744629,524.822266 L565.744629,524.822266 L565.744629,483.995117 L609.176758,537.468262 L610.787109,537.468262 Z M694.942871,536 L697.832031,515.586426 L696.07959,515.586426 C694.500814,521.27002 691.903727,525.501139 688.28833,528.279785 C684.672933,531.058431 679.86556,532.447754 673.866211,532.447754 L673.866211,532.447754 L670.029785,532.447754 C668.198405,532.447754 666.872233,532.19515 666.05127,531.689941 C665.230306,531.184733 664.66984,530.537435 664.369873,529.748047 C664.069906,528.958659 663.919922,526.795736 663.919922,523.259277 L663.919922,523.259277 L663.919922,505.166504 C666.982747,505.166504 669.319336,505.569092 670.929688,506.374268 C672.540039,507.179443 673.953044,508.750326 675.168701,511.086914 C676.384359,513.423503 677.181641,516.423177 677.560547,520.085938 L677.560547,520.085938 L679.360352,520.085938 L679.360352,486.458008 L677.560547,486.458008 C677.055339,491.44694 675.887044,495.220215 674.055664,497.777832 C672.224284,500.335449 669.271973,501.614258 665.19873,501.614258 L665.19873,501.614258 L663.919922,501.614258 L663.919922,475.469727 L670.550781,475.469727 C675.413411,475.469727 678.728841,475.753906 680.49707,476.322266 C683.52832,477.269531 685.872803,478.753581 687.530518,480.774414 C689.188232,482.795247 690.474935,486.126465 691.390625,490.768066 L691.390625,490.768066 L693.19043,490.768066 L693.19043,471.775391 L639.433105,471.775391 L639.433105,473.527832 L641.564453,473.527832 C643.648438,473.527832 645.290365,473.969889 646.490234,474.854004 C647.342773,475.453939 647.926921,476.306478 648.242676,477.411621 C648.400553,478.074707 648.479492,479.858724 648.479492,482.763672 L648.479492,525.011719 C648.479492,528.232422 648.305827,530.22168 647.958496,530.979492 C647.516439,532.05306 646.884928,532.810872 646.063965,533.25293 C644.927246,533.916016 643.427409,534.247559 641.564453,534.247559 L641.564453,534.247559 L639.433105,534.247559 L639.433105,536 L694.942871,536 Z M752.859375,536 L752.859375,534.247559 C749.922852,534.247559 747.917806,533.979167 746.844238,533.442383 C745.770671,532.905599 745.020752,532.187256 744.594482,531.287354 C744.168213,530.387451 743.955078,528.200846 743.955078,524.727539 L743.955078,506.729492 L748.17041,506.729492 L768.868164,536 L789.092285,536 L789.092285,534.247559 C787.387207,534.152832 785.88737,533.616048 784.592773,532.637207 C783.740234,531.942546 782.303548,530.190104 780.282715,527.379883 L780.282715,527.379883 L764.842285,505.640137 C768.75765,504.661296 771.804688,503.193034 773.983398,501.235352 C777.393555,498.140951 779.098633,494.225586 779.098633,489.489258 C779.098633,485.605469 777.961914,482.218994 775.688477,479.329834 C773.415039,476.440674 770.478516,474.45931 766.878906,473.385742 C763.279297,472.312174 757.595703,471.775391 749.828125,471.775391 L749.828125,471.775391 L719.989258,471.775391 L719.989258,473.527832 C722.925781,473.527832 724.930827,473.796224 726.004395,474.333008 C727.077962,474.869792 727.827881,475.588135 728.25415,476.488037 C728.68042,477.387939 728.893555,479.574544 728.893555,483.047852 L728.893555,483.047852 L728.893555,524.727539 C728.893555,528.200846 728.68042,530.379557 728.25415,531.263672 C727.827881,532.147786 727.085856,532.86613 726.028076,533.418701 C724.970296,533.971273 722.957357,534.247559 719.989258,534.247559 L719.989258,534.247559 L719.989258,536 L752.859375,536 Z M746.654785,503.366699 L743.955078,503.366699 L743.955078,475.23291 L749.022949,475.23291 C754.106608,475.23291 757.79305,476.401204 760.082275,478.737793 C762.371501,481.074382 763.516113,484.689779 763.516113,489.583984 C763.516113,492.962565 762.892497,495.701742 761.645264,497.801514 C760.398031,499.901286 758.685059,501.35376 756.506348,502.158936 C754.327637,502.964111 751.043783,503.366699 746.654785,503.366699 L746.654785,503.366699 Z M832.089355,537.515625 C838.530762,537.515625 843.843343,535.581624 848.0271,531.713623 C852.210856,527.845622 854.302734,523.227702 854.302734,517.859863 C854.302734,513.628743 853.008138,509.871257 850.418945,506.587402 C847.798177,503.303548 842.730306,499.814453 835.215332,496.120117 C829.847493,493.467773 826.421549,491.620605 824.9375,490.578613 C822.916667,489.126139 821.448405,487.657878 820.532715,486.173828 C819.869629,485.068685 819.538086,483.805664 819.538086,482.384766 C819.538086,480.142904 820.477458,478.16154 822.356201,476.440674 C824.234945,474.719808 826.784668,473.859375 830.005371,473.859375 C834.17334,473.859375 838.049235,475.493408 841.633057,478.761475 C845.216878,482.029541 847.466634,486.347493 848.382324,491.715332 L848.382324,491.715332 L850.324219,491.715332 L849.803223,470.307129 L848.382324,470.307129 C847.971842,472.233236 847.529785,473.448893 847.056152,473.954102 C846.58252,474.45931 845.935221,474.711914 845.114258,474.711914 C844.261719,474.711914 842.769775,474.198812 840.638428,473.172607 C838.50708,472.146403 836.699382,471.443848 835.215332,471.064941 C833.25765,470.559733 831.236816,470.307129 829.152832,470.307129 C823.437663,470.307129 818.701335,472.106934 814.943848,475.706543 C811.186361,479.306152 809.307617,483.663574 809.307617,488.778809 C809.307617,491.778483 809.994385,494.525553 811.36792,497.02002 C812.741455,499.514486 814.707031,501.772135 817.264648,503.792969 C819.822266,505.813802 824.02181,508.260905 829.863281,511.134277 C834.03125,513.186686 836.936198,514.852295 838.578125,516.131104 C840.220052,517.409912 841.443604,518.759766 842.248779,520.180664 C843.053955,521.601562 843.456543,523.069824 843.456543,524.585449 C843.456543,527.143066 842.406657,529.384928 840.306885,531.311035 C838.207113,533.237142 835.388997,534.200195 831.852539,534.200195 C827.274089,534.200195 823.003499,532.408285 819.040771,528.824463 C815.078044,525.240641 812.402018,520.038574 811.012695,513.218262 L811.012695,513.218262 L809.260254,513.218262 L809.260254,537.468262 L811.012695,537.468262 C811.581055,536.173665 812.323079,535.210612 813.23877,534.579102 C814.15446,533.947591 815.022786,533.631836 815.84375,533.631836 C816.822591,533.631836 818.069824,533.947591 819.585449,534.579102 C822.300944,535.71582 824.558594,536.489421 826.358398,536.899902 C828.158203,537.310384 830.068522,537.515625 832.089355,537.515625 Z" id="PARTNERS" fill="#FFFFFF" fill-rule="nonzero"></path>
    </g>
</svg>