<?xml version="1.0" encoding="UTF-8"?> <svg xmlns="http://www.w3.org/2000/svg" viewBox="0 0 650 118" width="650" height="118"><style> tspan { white-space:pre } .shp0 { fill: #114953 } </style><g id="Layer"><path id="Layer" class="shp0" d="M181.6 37L180.3 37L178.5 28L164.3 28L164.3 91.9L180.5 91.9L180.5 54.8C180.5 45.8 186.4 41.4 194.7 41.4L204.2 41.4L204.2 27.7L197.5 27.7C189.4 27.8 184 30.2 181.6 37Z"></path><path id="Layer" class="shp0" d="M216.2 28L232.4 28L232.4 91.9L216.2 91.9L216.2 28Z"></path><path id="Layer" class="shp0" d="M224.3 0C218.8 0 214.5 3.9 214.5 9.5C214.5 15.1 218.8 19 224.3 19C229.8 19 234.1 15.1 234.1 9.5C234.1 3.8 229.8 0 224.3 0Z"></path><path id="Layer" class="shp0" d="M287.9 27C276.2 27 270.8 32.2 268.2 37.6L266.9 37.6L265.1 28.1L250.9 28.1L250.9 92L267.1 92L267.1 59C267.1 47.1 272.9 40.2 282.8 40.2C291.6 40.2 296.5 45 296.5 54.6L296.5 92L312.7 92L312.7 53.8C312.8 37.9 302.9 27 287.9 27Z"></path><path id="Layer" class="shp0" d="M399 17.2L423.3 17.2L423.3 91.9L440.4 91.9L440.4 17.2L464.7 17.2L464.7 1.7L399 1.7L399 17.2Z"></path><path id="Layer" class="shp0" d="M483.6 0C478.1 0 473.8 3.9 473.8 9.5C473.8 15.1 478.1 19 483.6 19C489.1 19 493.4 15.1 493.4 9.5C493.4 3.8 489.1 0 483.6 0Z"></path><path id="Layer" class="shp0" d="M475.5 28L491.7 28L491.7 91.9L475.5 91.9L475.5 28Z"></path><path id="Layer" class="shp0" d="M37.8 38.6L34.8 38C23.7 35.5 18.9 32.5 18.9 25.8C18.9 19.1 23.7 15 34 15C44.1 15 50.3 19 50.6 28.9L67.1 25.1C65.1 8.4 51.8 0.1 34 0.1C14.7 0.1 2.2 9.9 2.2 26.4C2.2 42.9 12.9 49.2 31.8 53.3L34.8 53.9C46.4 56.5 52.5 59.1 52.5 66.5C52.5 73.7 46.7 78.9 35.1 78.9C23.6 78.9 16.6 73.6 16.4 63L-0.1 66.8C1.9 83.8 15.8 93.8 35.1 93.8C56 93.8 69.3 82.5 69.3 66C69.3 49.4 57 42.7 37.8 38.6Z"></path><path id="Layer" fill-rule="evenodd" class="shp0" d="M380 28L394.1 28L394.1 86.4C394.1 107 380.7 117.7 360.3 117.7L343 117.7L343 102.7L360.4 102.7C371 102.7 377.8 98.3 377.8 85.9L377.8 81.5L376.5 81.5C372.9 86.6 366.7 91.6 355.6 91.6C340.4 91.6 326.7 78.8 326.7 58.9C326.7 39.1 340.4 26.2 355.6 26.2C366.6 26.2 372.8 31.1 376.7 36.6L378 36.6L380 28ZM377.9 59C377.9 47.4 370.5 40.2 360.4 40.2C350.4 40.2 342.9 47.4 342.9 59C342.9 70.6 350.3 77.8 360.4 77.8C370.5 77.8 378 70.5 377.9 59Z"></path><path id="Layer" fill-rule="evenodd" class="shp0" d="M556.7 1.8L572.9 1.8L572.9 92L558.8 92L556.9 83.4L555.6 83.4C551.8 88.9 545.6 93.8 534.5 93.8C519.3 93.8 505.6 80.9 505.6 60C505.6 39.1 519.3 26.2 534.5 26.2C545.6 26.2 551.8 31.1 555.4 36.3L556.7 36.3L556.7 1.8ZM556.9 59.9C556.9 47.2 549.5 40 539.4 40C529.4 40 521.9 47.3 521.9 59.9C521.9 72.6 529.3 79.8 539.4 79.8C549.4 79.8 556.9 72.6 556.9 59.9Z"></path><path id="Layer" fill-rule="evenodd" class="shp0" d="M150.5 60C150.5 80.9 136.8 93.8 121.6 93.8C110.5 93.8 104.3 88.9 100.7 83.7L99.4 83.7L99.4 117.9L83.2 117.9L83.2 28L97.4 28L99.2 36.6L100.5 36.6C104.3 31.1 110.5 26.2 121.6 26.2C136.8 26.2 150.4 39.1 150.5 60ZM134.2 60.1C134.2 53.7 132.3 48.8 129.2 45.4C126.1 42 121.7 40.2 116.7 40.2C114.2 40.2 111.8 40.6 109.7 41.5C103.3 44.1 99.1 50.5 99.1 60C99.1 69.4 103.4 75.9 109.7 78.5C111.8 79.3 114.2 79.8 116.7 79.8C121.7 79.8 126.1 78 129.2 74.6C132.3 71.3 134.2 66.3 134.2 60.1Z"></path><path id="Layer" fill-rule="evenodd" class="shp0" d="M650 59.2L650 64.8L603.5 64.8C603.8 73.6 610.7 79.9 619.7 79.9C627.3 79.9 631.2 76.4 633.5 72.3L648.4 75.8C644.2 85.4 635.1 93.8 619.1 93.8C600 93.8 586.7 80.4 586.7 60C586.7 39.6 600 26.2 618.8 26.2C637.7 26.2 649.9 39.6 649.9 59.2L650 59.2ZM633.4 52.6C632.6 45.3 627.1 40.1 618.7 40.1C609.9 40.1 604.5 45.5 603.5 52.6L633.4 52.6Z"></path></g></svg> 